<svg xml:space="preserve" style="enable-background:new 0 0 18.6 18.6" viewBox="0 0 18.6 18.6"><path d="M9.3 4.5c-2.6 0-4.8 2.1-4.8 4.8s2.1 4.8 4.8 4.8a4.8 4.8 0 0 0 0-9.6zm0 7.9c-1.7 0-3.1-1.4-3.1-3.1s1.4-3.1 3.1-3.1 3.1 1.4 3.1 3.1c0 1.7-1.4 3.1-3.1 3.1zm6.1-8.1c0 .6-.5 1.1-1.1 1.1s-1.1-.5-1.1-1.1.5-1.1 1.1-1.1c.6 0 1.1.5 1.1 1.1zm3.2 1.2c0-1.4-.5-2.9-1.5-3.9C16 .6 14.6.1 13.2.1 11.6 0 7 0 5.5.1 4 0 2.6.6 1.6 1.6S0 4 .1 5.5C0 7 0 11.6.1 13.2c0 1.4.5 2.9 1.5 3.9 1.1 1 2.5 1.5 3.9 1.5 1.5.1 6.2.1 7.7 0 1.4 0 2.9-.5 3.9-1.5 1-1.1 1.5-2.5 1.5-3.9.1-1.6.1-6.2 0-7.7zm-2 9.3c-.3.8-1 1.5-1.8 1.8-1.2.5-4.1.4-5.5.4s-4.3.1-5.5-.4c-.8-.3-1.5-1-1.8-1.8-.5-1.2-.4-4.1-.4-5.5s0-4.3.5-5.5c.3-.8.9-1.4 1.7-1.7 1.3-.5 4.2-.4 5.5-.4s4.3-.1 5.5.4c.8.3 1.4 1 1.8 1.8.5 1.2.4 4.1.4 5.4s.1 4.3-.4 5.5z" style="fill:#fff"/></svg>