<svg xml:space="preserve" id="Layer_1" x="0" y="0" style="enable-background:new 0 0 20 20" version="1.1" viewBox="0 0 20 20"><style>.st0{fill:#fff}</style><g id="style_x3D_linear"><g id="menu-fries"><path id="vector" d="M19.2 4.6H.8c-.5 0-.8-.3-.8-.8S.3 3 .8 3h18.5c.4 0 .8.3.8.8s-.4.8-.9.8z" class="st0"/><path id="vector_2" d="M19.2 10.8H6.9c-.4 0-.8-.3-.8-.8 0-.4.3-.8.8-.8h12.3c.4 0 .8.3.8.8 0 .4-.3.8-.8.8z" class="st0"/><path id="vector_3" d="M19.2 16.9H.8c-.4 0-.8-.3-.8-.8 0-.4.3-.8.8-.8h18.5c.4 0 .8.3.8.8-.1.5-.4.8-.9.8z" class="st0"/></g></g></svg>