<svg xml:space="preserve" style="enable-background:new 0 0 360.1 743" viewBox="0 0 360.1 743"><style>.st6{fill:#fef6d2}.st10{fill:#fdf6d2}.st17{fill:#fbf4d1}.st18{opacity:.9;fill-rule:evenodd;clip-rule:evenodd;fill:#fff;enable-background:new}</style><g id="Layer_2"><linearGradient id="SVGID_1_" x1="-454.22" x2="-259.81" y1="-105.44" y2="88.98" gradientTransform="rotate(180 -128.67 186)" gradientUnits="userSpaceOnUse"><stop offset="0" style="stop-color:#00a862"/><stop offset=".49" style="stop-color:#1eff8b"/><stop offset="1" style="stop-color:#fafd2d"/></linearGradient><path d="M281.6 3.9s21.8 102.2 2.6 164.7C265 231 247.3 270.4 247.3 270.4L226.4 318 208 354.3l-19.7 39-16.1 29.1-15 23.6L5.4 668.9s-85.3 75.3-102.3 72.9l-8.2-28.4S149 479.5 174.7 362.7c5-22.7 12.1-45 21.5-66.3 30-66.9 84.2-194.4 91.6-257.6" style="fill:url(#SVGID_1_)"/><linearGradient id="SVGID_00000065760971921982310370000008105558314780297104_" x1="-530.9" x2="-489.08" y1="-1.59" y2="40.23" gradientTransform="rotate(180 -128.67 186)" gradientUnits="userSpaceOnUse"><stop offset="0" style="stop-color:#00a862"/><stop offset=".49" style="stop-color:#1eff8b"/><stop offset="1" style="stop-color:#fafd2d"/></linearGradient><path d="M176.3 413.6c-5.4 8.5-8.7 13.6-8.7 13.6s55.8-20.3 93.3-45c15.7-10.3 35.3-30.6 52.8-50.7 20.2-27.5 29-48.6 29-48.6l-4.2-.5c-18.7 35.4-41.2 61.5-63.8 80.8-1.1-11.3-.2-39.4 20.9-93.1l-1.5-.7s-18 25.8-32.2 104c-34.1 25.2-66.9 35.8-85.6 40.2z" style="fill:url(#SVGID_00000065760971921982310370000008105558314780297104_)"/><linearGradient id="SVGID_00000114047429032887634560000014372435164415326873_" x1="-226.97" x2="-207.26" y1="-267.76" y2="-248.05" gradientTransform="rotate(180 -128.67 186)" gradientUnits="userSpaceOnUse"><stop offset="0" style="stop-color:#00a862"/><stop offset=".49" style="stop-color:#1eff8b"/><stop offset="1" style="stop-color:#fafd2d"/></linearGradient><path d="m-113.6 683.6 2.8 9.7c4.2-2.3 8.5-4.8 13-7.6 30.1-18.3 63.8-42.2 101.5-79.9 21.2-21.3 33.6-32.6 29.9-36-3.9-3.5-57.1 57.7-100.6 88.2a258.56 258.56 0 0 1-46.6 25.6z" style="fill:url(#SVGID_00000114047429032887634560000014372435164415326873_)"/><linearGradient id="SVGID_00000107578329311177397880000017407503668916911499_" x1="-309" x2="-281.9" y1="171.5" y2="198.6" gradientTransform="rotate(180 -128.67 372)" gradientUnits="userSpaceOnUse"><stop offset="0" style="stop-color:#00a862"/><stop offset=".49" style="stop-color:#1eff8b"/><stop offset="1" style="stop-color:#fafd2d"/></linearGradient><path d="M-67.2 658.1c43.5-30.5 96.8-91.9 100.6-88.3 3.8 3.4-8.6 14.8-29.9 36-37.6 37.8-71.3 61.6-101.5 79.9-4.4 2.7-8.9 5.3-13 7.6l-2.8-9.7c16.4-6.9 32-15.3 46.6-25.5zm243.5-244.5c-.1 0-.2 0-.4.1.2-.1.3-.1.4-.1zm11.2 20c1.8-.9 3.8-1.6 5.7-2.5-2 .9-3.8 1.7-5.7 2.5z" style="fill:url(#SVGID_00000107578329311177397880000017407503668916911499_)"/><path d="M5.4 668.9c28-32.2 57.6-90.1 61.2-88.2 3.7 2-3.8 13.2-16.1 33.7-21.9 36.7-43.5 61.8-63.6 82-2.7 2.8-5.5 5.4-8.1 7.9-.2.2-.7.2-1-.1l-3.4-5.7a1 1 0 0 1 .1-.9c11.2-8.6 21.5-18 30.9-28.7z" style="fill:#43ac92"/><path d="M131.4 491.2c2-1.7 6.1 1 9.2 4.4 1.2 1.4 2.1 3 2.7 4.4v-60.5h1.1v60.6c.7-1.6 1.7-3.3 3.3-4.8 1.8-1.6 3.8-3 5.5-3.6 2-.7 3.4-.6 4.2.2 1.7 2-1 6.1-4.4 9.2-2.3 2.1-5.2 3.1-7.1 3.4a5.45 5.45 0 0 1 2.6 8.3c1.7.4 3.1 1.1 3.1 2.2v6.8h-.1c-.4-.1-.9-.1-1.2-.2l-1-3.8-.5 3.7c-.7-.1-1.4-.1-2.1-.2l-.5-3.4-.7 3.3h-2.3l-.5-3.3-.7 3.3c-.7 0-1.5.1-2.3.2l-.5-3.6-.9 3.8c-.6.1-1.1.2-1.6.4h-.1v-6.9c0-1 1.4-1.7 3.1-2.1-.6-.9-1.1-2.1-1.1-3.2 0-2.1 1.2-3.9 3-4.9-1.8-.6-4.5-1.7-6.6-4.1-1.6-1.8-3-3.8-3.6-5.5-.9-1.8-.8-3.3 0-4.1zm25.1 1.5c-.2-.2-.5-.4-1-.4s-1.2.1-2 .5c-1.6.6-3.4 1.8-5.2 3.3-2.1 1.8-3.1 4.2-3.7 5.9.4.4.7.9.7 1.5 1.7-.4 4.4-1.2 6.6-3.2 3.9-3.2 5.5-6.6 4.6-7.6zm-16.7 17.1c0 1.1.5 2.2 1.2 3 1.1-.1 2.3-.2 3.6-.2.7 0 1.5 0 2.2.1.7-.7 1.2-1.7 1.2-2.8 0-2.2-1.7-3.9-3.8-4.1h-.2c-2.4 0-4.2 1.8-4.2 4zm-7.5-14.9c.6 1.6 1.8 3.4 3.3 5.2 2 2.2 4.7 3.3 6.3 3.8v-.4c0-.6.4-1.2.9-1.5-.5-1.6-1.4-3.8-3-5.7-2.6-2.8-5.4-4.5-6.9-4.5-.4 0-.6.1-.7.2-.5.5-.4 1.6.1 2.9z" class="st6"/><linearGradient id="SVGID_00000121261113002667511290000003936087354147232671_" x1="-406.86" x2="-395.65" y1="-151.9" y2="-140.69" gradientTransform="rotate(180 -128.67 186)" gradientUnits="userSpaceOnUse"><stop offset="0" style="stop-color:#1eff8b"/><stop offset=".5" style="stop-color:#fafd2d"/><stop offset="1" style="stop-color:#1dcde5"/></linearGradient><path d="M143.2 512.5h1.3c.9 0 1.6 0 2.2.1.6.1 1.2.1 1.6.2 1 .2 1.7.6 2.1.9.1 0 .1.1.2.1.4.4.6.6.6 1.1v7h-.1c-.4-.1-.9-.1-1.2-.2l-1-3.8-.5 3.7c-.7-.1-1.4-.1-2.1-.2l-.5-3.4-.7 3.3h-2.3l-.5-3.3-.7 3.3c-.7 0-1.5.1-2.3.2l-.5-3.6-.9 3.8c-.6.1-1.1.2-1.6.2h-.1v-6.8c.2-1.8 5.2-2.5 7-2.6z" style="fill:url(#SVGID_00000121261113002667511290000003936087354147232671_)"/><linearGradient id="SVGID_00000117652216651298040680000014629591425975411380_" x1="-400.49" x2="-394.81" y1="-147.19" y2="-141.51" gradientTransform="rotate(180 -128.67 186)" gradientUnits="userSpaceOnUse"><stop offset="0" style="stop-color:#1eff8b"/><stop offset=".5" style="stop-color:#fafd2d"/><stop offset="1" style="stop-color:#1dcde5"/></linearGradient><path d="M143.2 512.5h1.3c.7 0 1.4 0 1.8.1-3.2 1.7-5.4 5-5.4 8.9-.5 0-1.1.1-1.6.1l-.5-3.6-.9 3.8c-.6.1-1.1.2-1.6.4h-.1v-6.8c.2-2.1 5.2-2.8 7-2.9z" style="fill:url(#SVGID_00000117652216651298040680000014629591425975411380_)"/><circle cx="144.2" cy="542.5" r="21.4" style="fill:none;stroke:#fef6d2;stroke-width:2;stroke-miterlimit:10"/><path d="M156.3 416.2c5.4-1.4 9.5-5.9 13.5-9.8 9.2-9.1 20.2-16.6 32-22 1.8-.9 3.9-1.6 5.7-.7-7.1 16.2-20.9 28.5-34.2 40.2-6 5.3-11.9 10.6-18 15.9-2 1.7-3.9 3.4-6.4 4.2-2.5.7-5.5.1-6.9-2.1-1.6-2.6-.2-6 1.2-8.7 2.6-5 5.2-10 7.7-15 .7-1.4 2.1-3 3.4-2.2M87.9 459c3.6-1.7 6.5-4.7 8.2-8.2.9-1.6 1.5-3.4 2.6-4.8 1.2-1.4 3.2-2.3 4.9-1.6 2.1 1 2.5 3.8 2.2 6.1-1.2 12.3-9.2 23-11.1 35.2-.4 2.8-.5 5.7-1.5 8.2-1 2.6-3 5.2-5.8 5.5-3.6.6-6.9-2.3-8.5-5.5-1.6-3.2-2.3-6.9-4.2-10-.7-1.4-1.7-2.5-2.3-3.9-1.5-3.7 0-7.7 1.5-11.4.2-.6.5-1.1.9-1.6 2.5-2.2 6.4 2.8 9.2 1.2 3-1.6.4-7.5 3.4-9M28.9 395.8c.6.6 1.8 1.1 2.2.4.2-.5 0-1 .1-1.5.2-.5 1-.7 1.5-.4.5.4.9.7 1.1 1.4.6 1.4 1 3 1 4.4 0 1.1-.2 2.3 0 3.4.2 1.5 1.2 2.8 1.8 4.2s1 3.1.1 4.3c-2.3-.7-4.2-2.3-6-3.9-.9-.7-1.6-1.5-2.3-2.2-1.1-1.1-2-2.5-2.8-3.7-1.2-1.7-2.3-3.4-3.2-5.3-.7-2-1.1-4.1-.6-6 1.5-.2 2.8 1 3.8 2.1 1 1.2 1.8 2.6 3.2 3.1M212.7 366.3c.5 1.8.9 3.8 1.4 5.7.1.2.1.6.4.7s.5.1.9.1c.9 0 1.8 0 2.6-.4 1.4-.6 2.1-1.8 2.5-3.2.4-1.4.6-2.8 1.1-4.1.9-2.2 2.6-4.1 4.2-5.9 2.7-3.3 4.7-7.4 5.5-11.6.1-.4.1-1-.1-1.2-.5-.5-1.2.1-1.6.6-1.6 2.1-2.7 4.5-4.2 6.8-1.5 2.2-3.3 4.3-5.8 5.3-.9.4-1.7.6-2.6 1-2.3 1.2-3.4 3.7-4.3 6.2" class="st10"/><path d="M332.7 319.4c1.2-1.1 4.1.6 6 2.8.7.9 1.4 2 1.7 2.8v-39.5h.7v39.6c.5-1 1.1-2.2 2.2-3.1 1.2-1.1 2.5-1.8 3.6-2.3 1.2-.5 2.2-.5 2.7.1 1.1 1.2-.6 4.1-2.8 6-1.5 1.4-3.3 2-4.7 2.2 1.4.5 2.3 1.8 2.3 3.3 0 .7-.2 1.5-.6 2.1 1.1.2 2 .7 2 1.5v4.4h-.1c-.2 0-.5-.1-.9-.1l-.6-2.6-.2 2.3c-.5 0-.9-.1-1.4-.1l-.4-2.2-.5 2.2h-1.5l-.4-2.2-.5 2.2c-.5 0-1 .1-1.5.1l-.4-2.3-.6 2.5c-.4 0-.7.1-1.1.2h-.1v-4.4c0-.6.9-1.1 2.1-1.4-.5-.6-.7-1.4-.7-2.1 0-1.4.7-2.6 2-3.2-1.2-.4-3-1.1-4.3-2.6-1.1-1.2-1.8-2.5-2.3-3.6-.3-1.1-.3-2.1.3-2.6zm16.4 1c-.1-.1-.4-.2-.6-.2-.4 0-.7.1-1.2.2-1.1.4-2.2 1.2-3.3 2.2a7.18 7.18 0 0 0-2.3 3.8c.2.2.5.5.5 1 1.1-.2 3-.7 4.3-2.1 2.1-2 3.2-4.3 2.6-4.9zm-10.8 11.1c0 .7.4 1.5.9 2 .7-.1 1.5-.1 2.3-.1.5 0 1 0 1.5.1.5-.5.7-1.1.7-1.8 0-1.5-1.1-2.6-2.6-2.7h-.1c-1.6-.1-2.7 1.1-2.7 2.5zm-5.1-9.6c.4 1.1 1.2 2.2 2.2 3.3 1.4 1.5 3.1 2.1 4.2 2.5v-.2c0-.4.2-.7.5-1a8 8 0 0 0-2-3.7c-1.7-1.8-3.6-3-4.4-3-.2 0-.4 0-.5.1-.3.4-.2 1 0 2z" class="st6"/><linearGradient id="SVGID_00000175311317962183844300000018217487645284181416_" x1="-601.68" x2="-594.36" y1="31.05" y2="38.37" gradientTransform="rotate(180 -128.67 186)" gradientUnits="userSpaceOnUse"><stop offset="0" style="stop-color:#1eff8b"/><stop offset=".5" style="stop-color:#fafd2d"/><stop offset="1" style="stop-color:#1dcde5"/></linearGradient><path d="M340.4 333.3h.9c.5 0 1 0 1.5.1.4 0 .7.1 1.1.1.6.1 1.1.4 1.4.6l.1.1c.2.2.4.5.4.7v4.7h-.1c-.2 0-.5-.1-.9-.1l-.6-2.6-.2 2.3c-.5 0-.9-.1-1.4-.1l-.4-2.2-.5 2.2h-1.5l-.4-2.2-.5 2.2c-.5 0-1 .1-1.5.1l-.4-2.3-.6 2.5c-.4 0-.7.1-1.1.2h-.1v-4.4c.3-1.4 3.7-1.9 4.8-1.9z" style="fill:url(#SVGID_00000175311317962183844300000018217487645284181416_)"/><linearGradient id="SVGID_00000061462940087120324860000013073563096649824424_" x1="-597.66" x2="-593.95" y1="34.27" y2="37.98" gradientTransform="rotate(180 -128.67 186)" gradientUnits="userSpaceOnUse"><stop offset="0" style="stop-color:#1eff8b"/><stop offset=".5" style="stop-color:#fafd2d"/><stop offset="1" style="stop-color:#1dcde5"/></linearGradient><path d="M340.4 333.3h2.1a6.9 6.9 0 0 0-3.6 5.8c-.4 0-.7 0-1 .1l-.4-2.3-.6 2.5c-.4 0-.7.1-1.1.2h-.1v-4.4c.2-1.4 3.6-1.9 4.7-1.9z" style="fill:url(#SVGID_00000061462940087120324860000013073563096649824424_)"/><circle cx="341.1" cy="352.8" r="13.9" style="fill:none;stroke:#fef6d2;stroke-width:1.9999;stroke-miterlimit:9.9996"/><linearGradient id="SVGID_00000132050745133149351390000000364696856081397664_" x1="-447.53" x2="-256.38" y1="-97.98" y2="93.18" gradientTransform="rotate(180 -128.67 186)" gradientUnits="userSpaceOnUse"><stop offset="0" style="stop-color:#00a862"/><stop offset=".49" style="stop-color:#1eff8b"/><stop offset="1" style="stop-color:#fafd2d"/></linearGradient><path d="M91 468.6c-1.5 2.2-2.8 4.4-4.3 6.6-.6.9-2 .7-2.3-.2-41.6-113.4-24-231.1-21.5-245.6.1-.9-.5-1.5-1.4-1.5h-2.3c-.6 0-1.2.5-1.4 1.1-5.9 38.9-7.5 81.5-6.6 121.9 0 1.2-1.6 1.8-2.3.9-15.4-20.8-19.2-34.9-20-39.1-.1-.7-.9-1.2-1.6-1-.6.1-1.1.7-1 1.5 3.7 24.7 18.1 46 25.2 55.5.1.2.2.5.2.7 2.2 60.5 9 113.5 12.5 138.1 0 .4 0 .7-.2 1-84.5 116.3-168.6 164.4-178.3 169.7-.5.2-.9 1-.6 1.5l.9 3c.2.7 1.1 1.1 1.8.9 15.7-6.9 30.7-14.9 45.1-25 43.5-30.5 96.8-91.9 100.6-88.3 3.8 3.4-8.6 14.8-29.9 36-37.6 37.8-71.3 61.6-101.5 79.9-4.2 2.6-8.2 4.9-12.1 7-.5.2-.7 1-.6 1.5l.4 1.2 3.2 11.1 1.7 5.8 8.2 28.4c.2.9 1.2 1.2 2 .7 70.3-40.3 144.9-140.3 219.4-246.3 11.4-16.4 22.5-33.3 32.8-50.3.1-.2.5-.5.7-.6.9-.2 1.6-.5 2.5-.7.1 0 .2-.1.4-.1 1-.2 1.8-.6 2.8-.9.1 0 .2-.1.4-.1.9-.2 1.7-.6 2.7-.9.1 0 .2-.1.4-.1.9-.2 1.7-.6 2.6-.9.9-.2 1.7-.6 2.6-1 .4-.1.9-.4 1.2-.5.6-.2 1.2-.5 1.8-.6.4-.1.9-.4 1.2-.5 1.7-.6 3.4-1.4 5.2-2l2.8-1.1c.9-.4 1.7-.7 2.6-1.1.1 0 .1-.1.2-.1 1.8-.9 3.8-1.6 5.7-2.5 1-.4 1.8-.9 2.8-1.2.9-.4 1.8-.9 2.7-1.2.9-.4 1.8-.9 2.7-1.4 1.2-.6 2.3-1.1 3.6-1.7 1.5-.7 3-1.5 4.4-2.3.9-.5 1.7-1 2.6-1.4.9-.5 1.7-1 2.6-1.4.7-.5 1.6-.9 2.3-1.4.1-.1.4-.1.5-.2.7-.4 1.4-.9 2.1-1.2.1-.1.4-.2.5-.2.6-.4 1.2-.7 2-1.1.9-.5 1.7-1.1 2.6-1.6.9-.5 1.6-1 2.5-1.5 0 0 .1 0 .1-.1.7-.5 1.5-1 2.2-1.5.7-.5 1.6-1 2.3-1.5.7-.5 1.5-1 2.3-1.5.7-.5 1.6-1.1 2.3-1.6.6-.4 1.1-.7 1.6-1.1 1-.6 2-1.4 2.8-2l2.2-1.6s.1 0 .1-.1l2.1-1.5c.6-.4 1.2-.9 1.7-1.2.9-.6 1.7-1.2 2.6-2 .6-.5 1.4-1 2-1.5.7-.6 1.6-1.2 2.3-1.8l1.7-1.4c.7-.6 1.5-1.2 2.3-1.8.4-.4.9-.7 1.2-1.1.2-.2.5-.4.7-.6.5-.5 1.1-.9 1.6-1.4l.4-.4c.5-.5 1.1-.9 1.6-1.4.9-.7 1.7-1.5 2.6-2.2.6-.5 1.1-1 1.7-1.5.6-.5 1.1-1 1.6-1.5 1.4-1.2 2.6-2.3 3.9-3.6.5-.5 1-.9 1.5-1.4l.6-.6c.4-.4.9-.7 1.2-1.2l.5-.5 1.5-1.5c2.5-2.3 4.8-4.8 7.1-7.1l1.4-1.4c5.2-5.5 10-10.9 14.4-16.2.2-.4.5-.6.7-1 .5-.6 1.1-1.2 1.6-2l1.5-1.8c.2-.4.5-.6.7-1 .2-.4.5-.6.7-1 .2-.4.5-.6.7-1l1.5-1.8c1.7-2.2 3.3-4.3 4.8-6.4-17.2 19.6-36.8 39.7-52.5 50.2-31.7 20.9-76.5 38.6-89.5 43.7-1.2.5-2.2-.9-1.6-2 1.5-2.3 3.7-5.8 6.5-10.3-.1 0-.2 0-.4.1-.1 0-.2.1-.4.1 46.4-81.4 76.7-155.9 77.8-158.8 0 0 0-.1.1-.1 9-17.8 17.7-38.6 24.5-62.3 22.6-78.6 13.3-147.9 3.6-189.7-.1-.7-.9-1.1-1.6-1L269.9 8c4.7 36.6 10.7 85.6-22.4 161.7-9.7 22.1-19.2 41.8-29.4 57.8" style="fill:url(#SVGID_00000132050745133149351390000000364696856081397664_)"/><path d="m-28.3 694 27.8 45.7C47.1 694.9 85.7 602.4 123.2 505c5.8-15 11.1-30.5 15.7-45.7 97.3-57.8 113-161.5 113-161.5l-3.4.5c-7.5 31-19.9 55.7-33.8 75-3.2-8.5-8.2-30.4-2.5-76l-1.4-.4s-9 23.5-4.2 86.7c-22 26.7-46.1 41.4-59.8 48.3 20.3-73.4 28.9-138.1 28.9-138.1s7.6-82.5-1.5-168.2c-9.1-85.7-21.3-86.8-21.3-86.8h-6.8c11.3 37.9 7.4 88.7 6.8 148.7-.2 26.8-2.8 51.3-6.3 73l-.1.7c-2.3 10.2-4.2 20.5-5.5 31-3.3 26.4-14.5 93.2-49.7 198.7-.9 2.7-1.8 5.3-2.7 7.9-60.7-85-68.2-188.1-68.2-188.1l-3.9 1c3.3 32.5 11.2 67.3 20.5 99.5-22-16.7-26.8-29.3-26.8-29.3l-1.8 1c8 19.1 24.2 33 31.8 38.9 14.1 46.6 30.5 86.7 38.2 104.8C32.7 640.2-28.3 694-28.3 694z" style="fill:#037f89"/><path d="M167.7 304.7c-7.5 43.3-22.6 105.4-52.5 189.5-.2.6-1.1.6-1.2-.1-.4-1.4-1.1-2.2-2.2-2.6-6.4-2-29.6 77.3-56.7 123.5-19.8 33.7-44.8 66-75.4 91.1l-.4.4 4.8 7.9 2.5 4.1L-1 739c.2.4.7.5 1 .1 47.3-45 85.8-137.2 123.1-234.1 5.8-15 10.9-30.3 15.7-45.5 0-.1.1-.2.2-.4 47.7-28.4 75.8-67.9 92-100.6.4-.7-.7-1.4-1.2-.6-7.3 13-15 25-22.3 32.7-21.5 23.4-55 47-62.7 52.3-.5.4-1.2-.1-1-.7.6-2 1.8-5.5 3.4-10.3-.1.1-.4.2-.5.2 20.4-73.5 29-138.2 29-138.2 11.3-121.6-1.8-207.5-12.1-242-3.9-13.3-10.7-13-10.7-13h-2l11.7 72.3 8.1 111.5-.9 56.7c.1 8.4-.6 16.9-2.1 25.3z" style="fill:#1dcde5"/><path d="M292.4 352.7c3.6-4.8 7.6-9.1 11.6-13.6 6.4-7.6 12.4-15.5 17.3-24.1 1.4-2.6 2.7-5.3 4.1-7.9.1-.2.2-.5.5-.6v-.5c-.4-.9 1.1-2-.1-2.6-1.1-.5-2.2 0-3.2.6-4.8 3-9.1 6.4-13.3 10.2-5.7 5.2-10.6 11.1-15.1 17.2-1.4 1.8-3.1 3.4-5 4.7-.5.2-1.1.7-1.6.7-3.4-.6-4.2 2.1-5.2 4.4-1.1 2.8-2.3 5.7-3.6 8.5-.1.4-.4.6-.7.7-.4 3-2.2 5.4-2.7 8.4-.4 2-.5 4.1 1.2 5.7 1.7 1.5 3.6.9 5.4.2 1.8-2.1 3.7-4.1 5.5-6 1.5-2.2 3.1-4.3 4.9-6zM212.4 365.4c.2 2.6 1.2 4.9 2 7.6 6.3-8.7 11.7-17.6 16.2-26.9-2.2.6-2.8 2.7-3.8 4.4-2.5 4.2-5.2 8-10.1 9.3-1.4.4-2.2 1.7-2.8 3-.6 1-.8 2-1.5 2.6zM198.7 398c2.8-4.1 5.7-8.2 7.7-12.8.2-.6 1.1-1.5-.2-2-3.9-.2-6.9 2-10.2 3.6-2.1 1-4.1 2.1-6.1 3.2-4.1 3.1-8.5 5.8-12.5 9-4.9 3.9-9.2 8.7-14 12.8-3 2.5-5.9 4.9-10.2 3.9-1-.2-1.6.7-2.3 1.2-2.7 5.2-5.4 10.5-8.1 15.6-.6 1.2-1.2 2.6-1.7 3.8-.7 2.3-.9 4.7 1.1 6.4 2 1.7 4.3 1.7 6.8.9 2-.7 3.7-2 5.2-3.4 12.4-11.2 25.5-21.6 37-33.8 2.7-2.3 5-5.4 7.5-8.4zM71.7 472.4c-1.1 4.4-.4 8.4 2.3 12.1 1.6 2.1 2.1 4.8 3 7.1 1 2.6 2.2 5 4.7 6.6 3.3 2.3 7 1.7 9.3-1.5 1.6-2.2 2.2-4.8 2.5-7.4.5-6.5 2.7-12.7 5.2-18.7 2.3-5.5 4.7-10.9 5.9-16.8.5-2.3.5-4.7.4-7.1-.2-.9-1.5-1.4-1.1-2.6-3.9-.4-6.1.9-7.6 4.4-1.8 4.2-4.3 7.7-8.5 10-1.7.9-2.8 2.5-2.6 4.5.1.9-.2 1.7-.4 2.6-.2 2-1.2 2.8-3.2 2.5-1.5.4-2.5-.6-3.7-1.1-2.7-1.1-3.7-.7-4.8 2-.6 1.2-1.1 2.3-1.4 3.4zM174.1 306c-.6 2.8-1.5 5.5-1.7 8.5 1.1-.1 1.7-1.1 2.3-1.8 3.8-4.2 6.6-9 9.5-13.8 4.4-7.6 8.7-15.2 13.2-22.9 5.9-10.1 13.9-18.3 21.2-27.4 6.1-7.7 11.8-15.7 16.5-24.5.6-1.1 1-2.2 1.4-3.3.2-.7.5-1.5-.2-2.1-.7-.5-1.5-.1-2.1.2-2 1.1-3.2 2.8-4.5 4.5-1.4 1.6-2.5 3.3-4.1 4.7-.7.6-1.5 1.6-2.5.9-.9-.6-.5-1.6-.2-2.5.4-1.7.9-3.4 1.8-4.9 1.6-2.6 3.1-5.3 3.9-8.2 3.4-10.9 9.1-20.9 14.8-30.7 1.7-3 3.3-5.9 4.3-9.1.2-.7 1.5-2.2-.6-2.6-.2.1-.4.4-.6.5-3.9 5.2-7.9 10.3-11.7 15.7-7.1 10.1-14 20.3-20.4 30.9-3.3 5.3-6 10.9-9 16.5-4.1 7.4-8.9 14.3-12.4 21.9-6.1 13-10.9 26.6-15.2 40.2-1.5 3.2-2.1 6.5-3.7 9.3zM271.4 85.3c1-4.5 1.2-9.1 1.6-13.8 1.4-18.7.4-37.4-2-56-.2-1.7-.5-3.6-.7-5.3-1.1.1-1.2 1-1.4 1.8-1.7 5.5-2.5 11.1-3 16.8-.4 3.7-.6 7.4-.4 11.1.4 5.3 1 10.5.9 15.7 0 2.3-.4 4.4-2.6 5.8-1.1.7-.6 1.8-.2 2.8 2.5 6.6 4.4 13.4 7.5 19.8.2.6.3 1.1.3 1.3zM264.2 121.1c1.7-2.5 2.7-5.2 2.7-8.2 0-1.7.4-3.6 1-5.2 2.2-5.4 2.2-11.1 2.8-16.6-1.4 2.1-1.4 4.7-2.1 7-.9 3-1.7 5.7-3.9 8.1-2.2 2.5-2.3 5.8-1.7 9.1.4 1.9.9 3.8 1.2 5.8z" class="st17"/><path id="icon:2" d="m127.5 533.3.9-.5 4.2 2.3v-.7l.9-.5.9.5v1.7l3.4 1.8v-1.7l.9-.5.9.5v2.6l1.7 1 2.3-1.2v-2l-2.3-1.4v-.9l.9-.5 1.6.9V531l-1.5-.9v-.9l.9-.5.7.4v-4.5l.9-.5.9.5v4.5l.7-.4.9.5v.9l-1.5.9v3.8l1.6-.9.9.5v.9l-2.3 1.4v2l2.3 1.2 1.7-1v-2.6l.9-.5.9.5v1.7l3.4-1.8v-1.7l.9-.5.9.5v.7l4.2-2.3.9.5v.9l-4.2 2.3.7.4v.9l-.9.5-1.6-.9-3.4 1.8 1.6.9v.9l-.9.5-2.5-1.4-1.7 1v2.6l1.7 1 2.5-1.4.9.5v.9l-1.6.9 3.4 1.8 1.6-.9.9.5v.9l-.7.4 4.2 2.3v.9l-.9.5-4.2-2.3v.7l-.9.5-.9-.5v-1.7l-3.4-1.8v1.7l-.9.5-.9-.5v-2.6l-1.7-1-2.3 1.2v2l1.7 1.6v.9l-.9.5-1.6-.9v3.8l1.5.9v.9l-.9.5-.7-.4v4.5l-.9.5-.9-.5V556l-.7.4-.9-.5v-.9l1.6-.9v-3.8l-1.6.9-.9-.5v-.9l2.3-1.4v-2l-2.3-1.2-1.7 1v2.6l-.9.5-.9-.5v-1.7l-3.4 1.8v1.7l-.9.5-.9-.5v-.7l-4.2 2.3-.9-.5v-.9l4.2-2.3-.7-.4v-.9l.9-.5 1.6.9 3.4-1.8-1.6-.9v-.9l.9-.5 2.5 1.4 1.7-1v-2.6l-1.7-1-2.5 1.2-.9-.5v-.9l1.6-.9-3.4-1.8-1.6.9-.9-.5v-.8l.7-.4-4.2-2.3v-1h.5z" class="st18"/><path id="icon:2_00000072988564804226275460000017709854838429802883_" d="m330.3 347.2.5-.2 2.7 1.5v-.5l.5-.2.5.2v1.1l2.2 1.2v-1.1l.5-.2.5.2v1.7l1.1.6 1.5-.9v-1.2l-1.5-.9v-.5l.5-.2 1 .5v-2.5l-1-.5v-.6l.5-.2.5.2v-2.8l.5-.2.5.2v3l.5-.2.5.2v.6l-1 .5v2.5l1-.6.7.2v.6l-1.5.9v1.2l1.5.9 1.1-.6v-1.6l.5-.2.5.2v1.1l2.2-1.2v-1.1l.5-.2.5.2v.5l2.7-1.5.5.2v.6l-2.7 1.5.5.2v.6l-.5.2-1-.5-2.2 1.2 1.1.4v.6l-.5.2-1.5-.9-1.1.6v1.6l1.1.6 1.5-.9.5.2v.6l-1 .5 2.2 1.2 1-.5.5.2v.6l-.5.2 2.7 1.5v.6l-.5.2-2.7-1.5v.5l-.5.2-.5-.2v-1.1l-2.2-1.2v1.1l-.5.2-.5-.2v-1.7l-1.1-.6-1.5.9v1.2l1.5.9v.6l-.5.2-1-.5v2.5l1 .5v.6l-.5.2-.5-.2v3l-.5.2-.5-.2v-3l-.5.2-.5-.2v-.6l1-.5v-2.5l-1 .6-.5-.2v-.6l1.5-.9v-1.2l-1.5-.9-1.1.6v1.6l-.5.2-.5.2v-1.1l-2.2 1.2v1.1l-.5.2-.5-.2v-.5l-2.7 1.5-.5-.2v-.6l2.7-1.5-.5-.2v-.7l.5-.2 1 .5 2.2-1.2-1-.5v-.6l.5-.2 1.5.9 1.1-.6v-1.6l-1.1-.6-1.5.9-.5-.2v-.6l1-.5-2.2-1.2-1.2.5-.5-.2v-.6l.5-.2-2.7-1.5-.1-1.1z" class="st18"/></g></svg>