<svg xml:space="preserve" style="enable-background:new 0 0 360.1 743" viewBox="0 0 360.1 743"><style>.st6{fill:#fef6d2}.st10{fill:#fdf6d2}.st17{fill:#fbf4d1}.st18{opacity:.9;fill-rule:evenodd;clip-rule:evenodd;fill:#fff;enable-background:new}</style><g id="Layer_2"><linearGradient id="SVGID_1_" x1="-335.64" x2="-141.22" y1="-105.44" y2="88.98" gradientTransform="matrix(1 0 0 -1 497.23 372)" gradientUnits="userSpaceOnUse"><stop offset="0" style="stop-color:#00a862"/><stop offset=".49" style="stop-color:#1eff8b"/><stop offset="1" style="stop-color:#fafd2d"/></linearGradient><path d="M70.8 38.8c7.4 63.2 61.6 190.7 91.6 257.6 9.5 21.3 16.5 43.5 21.5 66.3 25.7 116.8 279.8 350.7 279.8 350.7l-8.2 28.4c-17 2.3-102.3-72.9-102.3-72.9L201.2 446l-15-23.6-16.1-29.1-19.7-39-18.3-36.3-20.9-47.6S93.5 231 74.3 168.6 76.9 3.9 76.9 3.9" style="fill:url(#SVGID_1_)"/><linearGradient id="SVGID_00000174562194396603127650000001022532641723772351_" x1="-412.31" x2="-370.5" y1="-1.59" y2="40.23" gradientTransform="matrix(1 0 0 -1 497.23 372)" gradientUnits="userSpaceOnUse"><stop offset="0" style="stop-color:#00a862"/><stop offset=".49" style="stop-color:#1eff8b"/><stop offset="1" style="stop-color:#fafd2d"/></linearGradient><path d="M96.6 373.6c-14.3-78.2-32.2-104-32.2-104l-1.5.7C84 324 84.9 352 83.8 363.4 61.2 344 38.7 318 20 282.6l-4.2.5s8.9 21 29 48.6c17.5 20 37 40.3 52.8 50.7 37.5 24.7 93.3 45 93.3 45s-3.3-5.2-8.7-13.6c-18.7-4.6-51.6-15.2-85.6-40.2z" style="fill:url(#SVGID_00000174562194396603127650000001022532641723772351_)"/><linearGradient id="SVGID_00000162311588453391368400000006813094227227040402_" x1="-108.39" x2="-88.67" y1="-267.76" y2="-248.05" gradientTransform="matrix(1 0 0 -1 497.23 372)" gradientUnits="userSpaceOnUse"><stop offset="0" style="stop-color:#00a862"/><stop offset=".49" style="stop-color:#1eff8b"/><stop offset="1" style="stop-color:#fafd2d"/></linearGradient><path d="M425.5 658c-43.5-30.5-96.8-91.7-100.6-88.3-3.7 3.4 8.7 14.8 29.9 36 37.6 37.8 71.3 61.6 101.5 79.9 4.5 2.8 8.9 5.3 13 7.6l2.8-9.7c-16.2-6.8-31.8-15.2-46.6-25.5z" style="fill:url(#SVGID_00000162311588453391368400000006813094227227040402_)"/><linearGradient id="SVGID_00000096774694409599362910000008394670951277754252_" x1="-190.41" x2="-163.31" y1="171.5" y2="198.6" gradientTransform="matrix(1 0 0 -1 497.23 744)" gradientUnits="userSpaceOnUse"><stop offset="0" style="stop-color:#00a862"/><stop offset=".49" style="stop-color:#1eff8b"/><stop offset="1" style="stop-color:#fafd2d"/></linearGradient><path d="m472.3 683.7-2.8 9.7c-4.2-2.3-8.6-4.9-13-7.6-30.1-18.3-63.8-42.2-101.5-79.9-21.3-21.3-33.7-32.6-29.9-36 3.8-3.6 57.1 57.8 100.6 88.3 14.6 10.1 30.2 18.5 46.6 25.5zM182.2 413.6c.1 0 .2 0 .4.1-.2-.1-.3-.1-.4-.1zm-16.9 17.5c1.8.9 3.8 1.6 5.7 2.5-1.9-.8-3.7-1.6-5.7-2.5z" style="fill:url(#SVGID_00000096774694409599362910000008394670951277754252_)"/><path d="M384 697.6c.2.2.2.6.1.9l-3.4 5.7c-.2.4-.7.4-1 .1-2.6-2.5-5.4-5-8.1-7.9-20-20.2-41.7-45.3-63.6-81.9-12.3-20.5-19.8-31.7-16.1-33.7 3.7-2 33.2 56 61.2 88.2 9.3 10.6 19.7 20 30.9 28.6z" style="fill:#43ac92"/><path d="M227.2 495.4c-.6 1.7-2 3.7-3.6 5.5-2.1 2.3-4.8 3.4-6.6 4.1 1.7 1 3 2.8 3 4.9 0 1.1-.5 2.3-1.1 3.2 1.7.4 3.1 1.1 3.1 2.1v6.9h-.1c-.5-.1-1-.2-1.6-.4l-.9-3.8-.5 3.6c-.9-.1-1.6-.2-2.3-.2l-.7-3.3-.5 3.3h-2.3l-.7-3.3-.5 3.4c-.7.1-1.4.1-2.1.2l-.5-3.7-1 3.8c-.4.1-.9.1-1.2.2h-.1v-6.8c0-1.1 1.4-1.8 3.1-2.2-.6-.9-1-2-1-3.1 0-2.3 1.5-4.4 3.6-5.2-2-.4-4.8-1.4-7.1-3.4-3.4-3.1-6.1-7.3-4.4-9.2.7-.9 2.2-1 4.2-.2 1.7.6 3.7 2 5.5 3.6 1.6 1.5 2.6 3.2 3.3 4.8v-60.6h1.1v60.5c.6-1.5 1.5-3.1 2.7-4.4 3.1-3.4 7.3-6.1 9.2-4.4.7.7.8 2.2 0 4.1zm-20.8 4.9c2.2 2 4.9 2.8 6.6 3.2 0-.6.4-1.1.7-1.5-.6-1.7-1.6-4.1-3.7-5.9-1.7-1.5-3.6-2.7-5.2-3.3-.7-.4-1.5-.5-2-.5s-.7.1-1 .4c-.7 1 .9 4.4 4.6 7.6zm8.1 5.5h-.2a4 4 0 0 0-3.8 4.1c0 1.1.5 2.1 1.2 2.8.7-.1 1.5-.1 2.2-.1 1.2 0 2.5.1 3.6.2.7-.7 1.2-1.8 1.2-3 0-2.2-1.9-4-4.2-4zm11.8-13.7c-.1-.1-.4-.2-.7-.2-1.5 0-4.3 1.7-6.9 4.5-1.6 1.8-2.5 4.1-3 5.7.5.2.9.9.9 1.5v.4c1.6-.5 4.3-1.6 6.3-3.8 1.5-1.7 2.7-3.6 3.3-5.2.5-1.4.6-2.5.1-2.9z" class="st6"/><linearGradient id="SVGID_00000008838317720780604730000014022568613392021922_" x1="-288.27" x2="-277.06" y1="-151.9" y2="-140.69" gradientTransform="matrix(1 0 0 -1 497.23 372)" gradientUnits="userSpaceOnUse"><stop offset="0" style="stop-color:#1eff8b"/><stop offset=".5" style="stop-color:#fafd2d"/><stop offset="1" style="stop-color:#1dcde5"/></linearGradient><path d="M222.1 515.2v6.8h-.1c-.5 0-1-.1-1.6-.2l-.9-3.8-.5 3.6c-.9-.1-1.6-.2-2.3-.2l-.7-3.3-.5 3.3h-2.3l-.7-3.3-.5 3.4c-.7.1-1.4.1-2.1.2l-.5-3.7-1 3.8c-.4.1-.9.1-1.2.2h-.1v-7c0-.5.2-.7.6-1.1.1 0 .1-.1.2-.1.4-.2 1.1-.6 2.1-.9.4-.1 1-.1 1.6-.2s1.4-.1 2.2-.1H215.1c2 0 7 .7 7 2.6z" style="fill:url(#SVGID_00000008838317720780604730000014022568613392021922_)"/><linearGradient id="SVGID_00000030485101597506416180000005217463441992065440_" x1="-281.9" x2="-276.22" y1="-147.19" y2="-141.51" gradientTransform="matrix(1 0 0 -1 497.23 372)" gradientUnits="userSpaceOnUse"><stop offset="0" style="stop-color:#1eff8b"/><stop offset=".5" style="stop-color:#fafd2d"/><stop offset="1" style="stop-color:#1dcde5"/></linearGradient><path d="M222.1 515.5v6.8h-.1c-.5-.1-1-.2-1.6-.4l-.9-3.8-.5 3.6c-.5 0-1.1-.1-1.6-.1 0-3.8-2.2-7.1-5.4-8.9.5-.1 1.1-.1 1.8-.1H215.1c2 0 7 .7 7 2.9z" style="fill:url(#SVGID_00000030485101597506416180000005217463441992065440_)"/><circle cx="214.3" cy="542.5" r="21.4" style="fill:none;stroke:#fef6d2;stroke-width:2;stroke-miterlimit:10"/><path d="M204.1 415.9c1.4-.7 2.7.9 3.4 2.2 2.6 5 5.2 10 7.7 15 1.5 2.7 2.8 6.1 1.2 8.7-1.4 2.2-4.4 2.8-6.9 2.1-2.5-.7-4.4-2.5-6.4-4.2-6-5.3-11.9-10.6-18-15.9-13.3-11.7-27.1-24-34.2-40.2 1.7-.9 3.8-.1 5.7.7 11.8 5.4 22.7 12.9 32 22 4.1 3.9 8.1 8.5 13.5 9.8M271 459.3c3.1 1.5.5 7.4 3.4 9 2.8 1.6 6.8-3.4 9.2-1.2.4.5.6 1 .9 1.6 1.5 3.7 3 7.7 1.5 11.4-.6 1.5-1.6 2.6-2.3 3.9-1.8 3.1-2.6 6.8-4.2 10s-4.9 6.1-8.5 5.5c-2.8-.4-4.8-3-5.8-5.5-1-2.6-1.1-5.4-1.5-8.2-1.8-12.2-9.8-22.9-11.1-35.2-.2-2.3.1-5.2 2.2-6.1 1.7-.7 3.7.2 4.9 1.6 1.1 1.4 1.7 3.2 2.6 4.8 1.7 3.6 4.7 6.5 8.2 8.2M329.7 396.1c1.4-.5 2.2-1.8 3.2-3.1 1-1.1 2.3-2.3 3.8-2.1.5 2 .1 4.1-.6 6-.9 1.8-2 3.6-3.2 5.3-.9 1.2-1.7 2.6-2.8 3.7-.7.7-1.5 1.5-2.3 2.2-1.8 1.6-3.7 3.2-6 3.9-.9-1.2-.5-3 .1-4.3.6-1.4 1.6-2.7 1.8-4.2.2-1.1 0-2.3 0-3.4 0-1.5.4-3.1 1-4.4.2-.6.6-1 1.1-1.4.5-.4 1.2-.1 1.5.4.1.5-.1 1 .1 1.5.4.7 1.6.2 2.2-.4M145.8 366.3c-.9-2.5-2-5-4.2-6.1-.9-.4-1.7-.6-2.6-1-2.5-1-4.3-3.1-5.8-5.3-1.5-2.2-2.6-4.7-4.2-6.8-.4-.5-1.1-1.1-1.6-.6-.2.2-.2.9-.1 1.2.9 4.2 2.8 8.2 5.5 11.6 1.6 1.8 3.3 3.7 4.2 5.9.5 1.2.7 2.7 1.1 4.1.4 1.4 1.1 2.6 2.5 3.2.7.4 1.7.4 2.6.4.4 0 .6 0 .9-.1s.2-.5.4-.7c.4-2 .8-4 1.3-5.8" class="st10"/><path d="M26 322.3c-.5 1.1-1.2 2.3-2.3 3.6-1.4 1.5-3.1 2.2-4.3 2.6a3.56 3.56 0 0 1 1.3 5.3c1.2.2 2.1.7 2.1 1.4v4.4h-.1c-.4-.1-.7-.2-1.1-.2l-.6-2.5-.4 2.3c-.5 0-1-.1-1.5-.1l-.5-2.2-.4 2.2h-1.5l-.5-2.2-.4 2.2c-.5 0-.9.1-1.4.1l-.2-2.3-.6 2.6c-.4 0-.6.1-.9.1h-.1v-4.4c0-.7.9-1.2 2-1.5-.4-.6-.6-1.4-.6-2.1 0-1.5 1-2.8 2.3-3.3-1.4-.2-3.2-.9-4.7-2.2-2.2-2-3.9-4.8-2.8-6 .5-.6 1.5-.6 2.7-.1 1.1.5 2.3 1.2 3.6 2.3 1.1.9 1.7 2.1 2.2 3.1v-39.6h.7v39.5c.4-.9 1-2 1.7-2.8 2-2.2 4.8-3.9 6-2.8.7.2.7 1.2.3 2.6zm-13.9 3.1c1.4 1.4 3.2 1.8 4.3 2.1 0-.5.2-.7.5-1-.2-1-1-2.6-2.3-3.8-1.1-1-2.2-1.8-3.3-2.2-.5-.1-.9-.2-1.2-.2-.2 0-.5.1-.6.2-.7.5.4 2.8 2.6 4.9zm5.4 3.5h-.1c-1.5.1-2.6 1.2-2.6 2.7 0 .7.2 1.4.7 1.8.5-.1 1-.1 1.5-.1.9 0 1.6 0 2.3.1.5-.5.9-1.2.9-2 0-1.3-1.1-2.5-2.7-2.5zm7.8-9c-.1-.1-.2-.1-.5-.1-.9 0-2.7 1.1-4.4 3a9.05 9.05 0 0 0-2 3.7c.2.2.5.6.5 1v.2c1.1-.4 2.8-1 4.2-2.5 1-1.1 1.8-2.2 2.2-3.3.2-1 .3-1.6 0-2z" class="st6"/><linearGradient id="SVGID_00000088846453369497175330000012181091869135447441_" x1="-483.09" x2="-475.77" y1="31.05" y2="38.37" gradientTransform="matrix(1 0 0 -1 497.23 372)" gradientUnits="userSpaceOnUse"><stop offset="0" style="stop-color:#1eff8b"/><stop offset=".5" style="stop-color:#fafd2d"/><stop offset="1" style="stop-color:#1dcde5"/></linearGradient><path d="M22.9 335.3v4.4h-.1c-.4-.1-.7-.2-1.1-.2l-.6-2.5-.4 2.3c-.5 0-1-.1-1.5-.1l-.5-2.2-.4 2.2h-1.5l-.5-2.2-.4 2.2c-.5 0-.9.1-1.4.1l-.2-2.3-.6 2.6c-.4 0-.6.1-.9.1h-.1V335c0-.2.1-.5.4-.7l.1-.1c.2-.2.7-.5 1.4-.6.4 0 .7-.1 1.1-.1.5-.1 1-.1 1.5-.1h.9c1.1-.1 4.4.4 4.8 1.9z" style="fill:url(#SVGID_00000088846453369497175330000012181091869135447441_)"/><linearGradient id="SVGID_00000077322598285180749710000002104635448167535237_" x1="-479.07" x2="-475.36" y1="34.27" y2="37.98" gradientTransform="matrix(1 0 0 -1 497.23 372)" gradientUnits="userSpaceOnUse"><stop offset="0" style="stop-color:#1eff8b"/><stop offset=".5" style="stop-color:#fafd2d"/><stop offset="1" style="stop-color:#1dcde5"/></linearGradient><path d="M22.8 335.2v4.4h-.1c-.4-.1-.7-.2-1.1-.2l-.6-2.5-.4 2.3c-.2-.1-.6-.1-1-.1a6.7 6.7 0 0 0-3.6-5.8h2.1c1.1 0 4.4.5 4.7 1.9z" style="fill:url(#SVGID_00000077322598285180749710000002104635448167535237_)"/><circle cx="17.4" cy="352.8" r="13.9" style="fill:none;stroke:#fef6d2;stroke-width:1.9999;stroke-miterlimit:9.9996"/><linearGradient id="SVGID_00000095321646067275918120000002462931808177127325_" x1="-328.94" x2="-137.79" y1="-97.98" y2="93.18" gradientTransform="matrix(1 0 0 -1 497.23 372)" gradientUnits="userSpaceOnUse"><stop offset="0" style="stop-color:#00a862"/><stop offset=".49" style="stop-color:#1eff8b"/><stop offset="1" style="stop-color:#fafd2d"/></linearGradient><path d="M140.4 227.5c-10.2-16-19.7-35.7-29.4-57.8C77.9 93.6 83.9 44.6 88.6 8L78.5 2.1c-.7-.1-1.5.2-1.6 1-9.7 41.8-19.1 111.2 3.6 189.7 6.8 23.7 15.5 44.5 24.5 62.3.1 0 .1.1.1.1 1.1 2.8 31.5 77.3 77.8 158.8-.1 0-.2-.1-.4-.1-.1-.1-.2-.1-.4-.1 2.8 4.5 5 8 6.5 10.3.6 1.1-.4 2.5-1.6 2-13-5-57.8-22.7-89.5-43.7-15.7-10.5-35.3-30.6-52.5-50.2 1.5 2.1 3.1 4.2 4.8 6.4l1.5 1.8c.2.4.5.6.7 1 .2.4.5.6.7 1s.5.6.7 1l1.5 1.8c.5.7 1.1 1.4 1.6 2 .2.4.5.6.7 1 4.4 5.3 9.2 10.7 14.4 16.2l1.4 1.4c2.3 2.3 4.7 4.8 7.1 7.1l1.5 1.5.5.5c.4.5.9.9 1.2 1.2l.6.6c.5.5 1 .9 1.5 1.4 1.4 1.2 2.6 2.3 3.9 3.6.5.5 1 1 1.6 1.5.6.5 1.1 1 1.7 1.5.9.7 1.7 1.5 2.6 2.2.5.5 1.1.9 1.6 1.4l.4.4c.5.5 1.1.9 1.6 1.4.2.2.5.4.7.6.4.4.9.7 1.2 1.1.9.6 1.6 1.2 2.3 1.8l1.7 1.4c.7.6 1.6 1.2 2.3 1.8.6.5 1.4 1 2 1.5.9.7 1.7 1.4 2.6 2 .5.4 1.1.9 1.7 1.2l2.1 1.5c0 .1.1.1.1.1l2.2 1.6c.9.6 1.8 1.4 2.8 2 .5.4 1 .7 1.6 1.1.7.5 1.6 1.1 2.3 1.6.9.5 1.6 1 2.3 1.5.7.5 1.6 1 2.3 1.5.7.5 1.5 1 2.2 1.5 0 .1.1.1.1.1.9.5 1.6 1 2.5 1.5s1.7 1.1 2.6 1.6c.7.4 1.4.7 2 1.1.1 0 .4.1.5.2.7.4 1.4.9 2.1 1.2.1.1.4.1.5.2.7.5 1.6.9 2.3 1.4.9.4 1.7.9 2.6 1.4.9.4 1.7.9 2.6 1.4 1.5.9 3 1.6 4.4 2.3 1.2.6 2.3 1.1 3.6 1.7.9.5 1.8 1 2.7 1.4.9.4 1.8.9 2.7 1.2 1 .4 1.8.9 2.8 1.2 1.8.9 3.8 1.6 5.7 2.5.1 0 .1.1.2.1.9.4 1.7.7 2.6 1.1l2.8 1.1c1.7.6 3.4 1.4 5.2 2 .4.1.9.4 1.2.5.6.1 1.2.4 1.8.6.4.1.9.4 1.2.5.9.4 1.7.7 2.6 1 .9.2 1.7.6 2.6.9.1 0 .2.1.4.1 1 .2 1.8.6 2.7.9.1 0 .2.1.4.1 1 .2 1.8.6 2.8.9.1 0 .2.1.4.1.9.2 1.6.5 2.5.7.2.1.6.4.7.6 10.3 17 21.4 33.9 32.8 50.3 74.5 106 149 206 219.4 246.3.7.5 1.7.1 2-.7l8.2-28.4 1.7-5.8 3.2-11.1.4-1.2c.1-.5-.1-1.2-.6-1.5-3.8-2.1-7.9-4.4-12.1-7-30.1-18.3-63.8-42.2-101.5-79.9-21.3-21.3-33.7-32.6-29.9-36 3.8-3.6 57.1 57.8 100.6 88.3 14.4 10.1 29.4 18.1 45.1 25 .7.2 1.6-.1 1.8-.9l.9-3c.2-.5-.1-1.2-.6-1.5-9.7-5.3-93.8-53.4-178.3-169.7-.2-.2-.2-.6-.2-1 3.6-24.6 10.3-77.6 12.5-138.1 0-.2.1-.5.2-.7 7.1-9.5 21.5-30.7 25.2-55.5.1-.7-.4-1.4-1-1.5-.7-.2-1.5.2-1.6 1-.9 4.2-4.7 18.3-20 39.1-.7 1-2.3.4-2.3-.9.9-40.3-.7-83-6.6-121.9-.1-.6-.7-1.1-1.4-1.1H297c-.9 0-1.5.6-1.4 1.5 2.5 14.5 20 132.2-21.5 245.6-.4 1-1.7 1.1-2.3.2-1.5-2.2-2.8-4.4-4.3-6.6" style="fill:url(#SVGID_00000095321646067275918120000002462931808177127325_)"/><path d="M279.9 526.5c7.7-18.1 24.1-58.2 38.2-104.8 7.6-5.9 23.9-19.8 31.8-38.9l-1.8-1s-4.8 12.5-26.8 29.3c9.3-32.2 17.2-67 20.5-99.5l-3.9-1s-7.5 103.2-68.2 188.1c-.9-2.6-1.8-5.2-2.7-7.9-35.2-105.5-46.4-172.3-49.7-198.7-1.4-10.5-3.2-20.8-5.5-31l-.1-.7c-3.4-21.8-6-46.2-6.3-73-.6-60-4.5-110.8 6.8-148.7h-6.8s-12.2 1.1-21.3 86.8c-9.1 85.7-1.5 168.2-1.5 168.2s8.6 64.7 28.9 138.1c-13.6-6.9-37.8-21.6-59.8-48.3 4.8-63.2-4.2-86.7-4.2-86.7l-1.4.4c5.8 45.6.7 67.5-2.5 76-13.9-19.3-26.3-44-33.8-75l-3.4-.5s15.7 103.7 113 161.5c4.7 15.2 10 30.7 15.7 45.7 37.5 97.4 76.1 189.9 123.7 234.8l27.8-45.7c.2 0-60.8-53.8-106.7-167.5z" style="fill:#037f89"/><path d="m188.4 279.4-.9-56.7 8.1-111.5 11.7-72.3h-2s-6.8-.2-10.7 13c-10.2 34.6-23.4 120.4-12.1 242 0 0 8.6 64.7 29 138.2-.1 0-.4-.1-.5-.2 1.6 4.8 2.8 8.4 3.4 10.3.2.6-.5 1.1-1 .7-7.7-5.3-41.2-28.9-62.7-52.3-7.3-7.7-15-19.7-22.3-32.7-.5-.7-1.6-.1-1.2.6 16.2 32.7 44.3 72.2 92 100.6.1.1.2.2.2.4 4.8 15.2 10 30.5 15.7 45.5 37.3 96.9 75.8 189.1 123.1 234.1.2.4.7.2 1-.1l12.4-20.7 2.5-4.1 4.8-7.9-.4-.4c-30.6-25.1-55.6-57.4-75.4-91.1-27.1-46.1-50.3-125.4-56.7-123.5-1.1.4-1.8 1.2-2.2 2.6-.1.7-1 .7-1.2.1-29.9-84.1-45-146.2-52.5-189.5-1.2-8.2-1.9-16.7-2.1-25.1z" style="fill:#1dcde5"/><path d="M71 358.7c1.8 2 3.7 3.9 5.5 6 1.8.6 3.7 1.2 5.4-.2 1.7-1.6 1.6-3.7 1.2-5.7-.5-3-2.3-5.4-2.7-8.4-.4-.1-.6-.4-.7-.7-1.2-2.8-2.5-5.7-3.6-8.5-1-2.3-1.7-5-5.2-4.4-.5 0-1.1-.5-1.6-.7-2-1.2-3.7-2.8-5-4.7-4.5-6.1-9.5-12.1-15.1-17.2-4.2-3.8-8.5-7.3-13.3-10.2-1-.6-2.1-1.1-3.2-.6-1.2.6.2 1.7-.1 2.6v.5c.2.1.4.4.5.6 1.4 2.6 2.7 5.3 4.1 7.9 4.9 8.6 10.9 16.5 17.3 24.1 3.9 4.5 8 8.9 11.6 13.6 1.8 1.7 3.4 3.8 4.9 6zM144.7 362.9c-.6-1.2-1.5-2.6-2.8-3-4.9-1.4-7.6-5.2-10.1-9.3-1-1.7-1.6-3.8-3.8-4.4 4.5 9.3 10 18.2 16.2 26.9.7-2.7 1.7-5 2-7.6-.8-.7-1-1.7-1.5-2.6zM167.5 406.4c11.6 12.2 24.6 22.6 37 33.8 1.5 1.5 3.2 2.7 5.2 3.4 2.5.9 4.8.9 6.8-.9 2-1.7 1.8-4.1 1.1-6.4-.5-1.2-1.1-2.6-1.7-3.8-2.7-5.2-5.4-10.5-8.1-15.6-.7-.5-1.4-1.5-2.3-1.2-4.3 1-7.3-1.5-10.2-3.9-4.8-4.1-9.1-8.9-14-12.8-4.1-3.2-8.5-5.9-12.5-9-2.1-1.1-4.1-2.2-6.1-3.2-3.3-1.6-6.3-3.8-10.2-3.6-1.4.5-.5 1.4-.2 2 2.1 4.5 4.9 8.7 7.7 12.8 2.2 3 4.6 6.1 7.5 8.4zM285.5 469c-1.1-2.7-2.1-3.1-4.8-2-1.2.5-2.2 1.5-3.7 1.1-2 .4-3-.5-3.2-2.5-.1-.9-.5-1.7-.4-2.6.2-2.1-.9-3.7-2.6-4.5-4.2-2.2-6.6-5.8-8.5-10-1.5-3.6-3.7-4.8-7.6-4.4.4 1.2-.9 1.7-1.1 2.6-.1 2.5-.1 4.8.4 7.1 1.2 5.9 3.6 11.3 5.9 16.8 2.5 6 4.7 12.2 5.2 18.7.2 2.6.9 5.2 2.5 7.4 2.3 3.2 6 3.8 9.3 1.5 2.5-1.6 3.7-4.1 4.7-6.6.9-2.3 1.4-5 3-7.1 2.7-3.7 3.4-7.6 2.3-12.1-.5-1.1-.9-2.2-1.4-3.4zM180.9 296.7c-4.3-13.6-9.1-27.2-15.2-40.2-3.6-7.6-8.4-14.5-12.4-21.9-3-5.5-5.7-11.2-9-16.5-6.4-10.6-13.3-20.8-20.4-30.9-3.8-5.4-7.7-10.6-11.7-15.7-.2-.1-.4-.4-.6-.5-2.1.4-.9 1.8-.6 2.6 1 3.2 2.6 6.1 4.3 9.1 5.7 9.8 11.3 19.8 14.8 30.7.9 3 2.3 5.7 3.9 8.2 1 1.5 1.5 3.2 1.8 4.9.2.9.6 1.8-.2 2.5-1 .7-1.7-.2-2.5-.9-1.6-1.4-2.7-3.1-4.1-4.7-1.4-1.7-2.6-3.4-4.5-4.5-.6-.4-1.4-.7-2.1-.2-.7.6-.5 1.4-.2 2.1.4 1.1.7 2.2 1.4 3.3 4.7 8.7 10.3 16.7 16.5 24.5 7.3 9.1 15.2 17.3 21.2 27.4 4.4 7.6 8.7 15.2 13.2 22.9 2.8 4.8 5.7 9.6 9.5 13.8.6.7 1.2 1.7 2.3 1.8-.2-3-1.1-5.7-1.7-8.5-1.8-2.8-2.4-6.1-3.7-9.3zM87.4 84.2c3.1-6.4 5-13.2 7.5-19.8.4-1 .9-2.1-.2-2.8-2.2-1.4-2.6-3.4-2.6-5.8-.1-5.3.5-10.5.9-15.7.2-3.7 0-7.4-.4-11.1-.5-5.8-1.2-11.3-3-16.8-.1-.9-.2-1.7-1.4-1.8-.2 1.7-.5 3.6-.7 5.3-2.3 18.6-3.3 37.3-2 56 .4 4.7.6 9.2 1.6 13.8 0-.4.1-.9.3-1.3zM95.5 115.3c.6-3.3.5-6.6-1.7-9.1s-3.1-5.2-3.9-8.1c-.7-2.3-.7-4.9-2.1-7 .6 5.5.6 11.2 2.8 16.6.6 1.6 1 3.4 1 5.2 0 3.1 1 5.8 2.7 8.2.3-2 .8-3.9 1.2-5.8z" class="st17"/><path id="icon:2" d="M231 533.3h.5v1l-4.2 2.3.7.4v.9l-.9.5-1.6-.9-3.4 1.8 1.6.9v.9l-.9.5-2.5-1.2-1.7 1v2.6l1.7 1 2.5-1.4.9.5v.9l-1.6.9 3.4 1.8 1.6-.9.9.5v.9l-.7.4 4.2 2.3v.9l-.9.5-4.2-2.3v.7l-.9.5-.9-.5V549l-3.4-1.8v1.7l-.9.5-.9-.5v-2.6l-1.7-1-2.3 1.2v2l2.3 1.4v.9l-.7.2-1.6-.9v3.8l1.6.9v.9l-.9.5-.7-.4v4.6l-.9.5-.9-.5v-4.5l-.7.4-.9-.5v-.9l1.5-.9v-3.8l-1.6.9-.9-.5v-.9l1.7-1.6v-2l-2.3-1.2-1.7 1v2.6l-.9.5-.9-.5v-1.7l-3.4 1.8v1.7l-.9.5-.9-.5v-.7l-4.2 2.3-.9-.5v-.9l4.2-2.3-.7-.4v-.9l.9-.5 1.6.9 3.4-1.8-1.6-.9v-.9l.9-.5 2.5 1.4 1.7-1V541l-1.7-1-2.5 1.4-.9-.5v-.9l1.6-.9-3.4-1.8-1.6.9-.9-.5v-.9l.7-.4-4.2-2.3v-.9l.9-.5 4.2 2.3v-.7l.9-.5.9.5v1.7l3.4 1.8v-1.7l.9-.5.9.5v2.6l1.7 1 2.3-1.2v-2l-2.3-1.4v-.9l.9-.5 1.6.9V531l-1.5-.9v-.9l.9-.5.7.4v-4.5l.9-.5.9.5v4.5l.7-.4.9.5v.9l-1.5.9v3.8l1.6-.9.9.5v.9l-2.3 1.4v2l2.3 1.2 1.7-1v-2.6l.9-.5.9.5v1.7l3.4-1.8v-1.7l.9-.5.9.5v.7l4.2-2.3.7.4z" class="st18"/><path id="icon:2_00000072988564804226275460000017709854838429802883_" d="m28.2 347.2-.1.6-2.7 1.5.5.2v.6l-.5.2-1.2-.5L22 351l1 .5v.6l-.5.2-1.5-.9-1.1.6v1.6l1.1.6 1.5-.9.5.2v.6l-1 .5 2.2 1.2 1-.5.5.2v.6l-.5.2 2.7 1.5v.6l-.5.2-2.7-1.5v.5l-.5.2-.5-.2v-1.1l-2.2-1.2v1.1l-.5.2-.5-.2v-1.6l-1.1-.6-1.5.9v1.2l1.5.9v.6l-.5.2-1-.6v2.5l1 .5v.6l-.5.2-.5-.2v3l-.5.2-.5-.2v-3l-.5.2-.5-.2v-.6l1-.5v-2.5l-1 .5-.5-.2v-.6l1.5-.9V355l-1.5-.9-1.1.6v1.7l-.5.2-.5-.2v-1.1l-2.2 1.2v1.1l-.5.2-.5-.2v-.5l-2.7 1.5-.5-.2v-.6l2.7-1.5-.5-.2v-.1l.5-.2 1 .5 2.2-1.2-1-.5v-.6l.5-.2 1.5.9 1.1-.6v-1.6l-1.1-.6-1.5.9-.5-.2v-.6l1.1-.4-2.2-1.2-1 .5-.5-.2v-.6l.5-.2-2.6-1.9v-.6l.5-.2 2.7 1.5v-.5l.5-.2.5.2v1.1l2.2 1.2v-1.1l.5-.2.5.2v1.6l1.1.6 1.5-.9v-1.2l-1.5-.9v-.6l.7-.2 1 .6v-2.5l-1-.5v-.6l.5-.2.5.2v-3l.5-.2.5.2v2.8l.5-.2.5.2v.6l-1 .5v2.5l1-.5.5.2v.6l-1.5.9v1.2l1.5.9 1.1-.6v-1.7l.5-.2.5.2v1.1l2.2-1.2V348l.5-.2.4.2v.5l2.7-1.5.5.2z" class="st18"/></g></svg>